<svg xmlns="http://www.w3.org/2000/svg" aria-hidden="true" style="width:0;height:0;position:absolute;overflow:hidden"><defs><symbol id="ukraine" viewBox="0 0 32 32"><path fill="#406ab5" style="fill:var(--color1,#406ab5)" d="m17 8 4-1v2l2 2h3v1l4 1-1 2 1 2h-1l-1 2-5 3 1 2 2-1-1 2-4 2v-1l-2-1v-1l1-2h-2l-1 2-1-1-2 2h-1l-1-1 1-2 2-2-4-4-3 1-1 1H3l-1-2 2-1v-2l2-1-1-3 3-1 5 2 1-1 1 2z"/><path fill="#fcdf65" style="fill:var(--color2,#fcdf65)" d="m29 17-6 5 1 2 2-1-1 2-4 2v-1l-2-1v-1l1-2h-2l-1 2-1-1-2 2h-1l-1-1 1-2 2-2-3-3z"/><path fill="#4d4d4d" style="fill:var(--color3,#4d4d4d)" d="m30.118 15 .777-1.553a1.001 1.001 0 0 0-.645-1.415l-.007-.002L27 11.22V11a1 1 0 0 0-1-1h-2.586L22 8.586V7a1 1 0 0 0-1.25-.968l.007-.002-4 1c-.24.06-.45.208-.589.415l-1.044 1.567-.23-.46a1.002 1.002 0 0 0-1.601-.259l-.534.534L8.372 7.07a1.023 1.023 0 0 0-.695-.018l.007-.002-3 1a1.001 1.001 0 0 0-.631 1.272l-.002-.007.726 2.178-1.224.611c-.33.168-.553.505-.553.895v1.384l-1.447.723a1.002 1.002 0 0 0-.446 1.348l-.003-.006 1 2c.168.33.505.553.895.553H7a.997.997 0 0 0 .707-.293l.833-.833 2.19-.73 2.856 2.856-1.293 1.293a1.01 1.01 0 0 0-.185.254l-.003.006-1 2a.997.997 0 0 0 .188 1.154l1 1a.997.997 0 0 0 .707.293h1a.997.997 0 0 0 .707-.293L16 24.415l.293.293a1 1 0 0 0 1.599-.255l.003-.006.105-.211V25c0 .389.223.727.547.892l.006.003 1.447.723V27a1 1 0 0 0 1.453.892l-.006.003 4-2c.194-.097.35-.254.448-.448l1-2a1 1 0 0 0-1.348-1.339l.006-.003-1.106.553-.138-.277 4.206-2.524c.163-.099.293-.238.377-.404l.003-.006.723-1.447H30a1 1 0 0 0 .892-1.453l.003.006L30.118 15zm-2.013-.447c-.14.281-.14.613 0 .894l.356.71a1.002 1.002 0 0 0-.353.39l-.003.006-.87 1.74-4.75 2.85a1 1 0 0 0-.377 1.309l-.003-.006 1 2c.054.108.124.2.207.28l-1.47.734a1.007 1.007 0 0 0-.389-.353l-.006-.003L20 24.381v-.146l.895-1.789A1.002 1.002 0 0 0 20 20.999h-2c-.389 0-.727.223-.892.547l-.003.006-.379.759-.019-.019a.997.997 0 0 0-1.414 0l-1.707 1.707h-.172l-.197-.197.605-1.21 1.885-1.886a.997.997 0 0 0 0-1.414l-4-4a.994.994 0 0 0-1.03-.24l.007-.002-3 1c-.147.05-.281.132-.391.242l-.707.707H3.618l-.276-.553 1.105-.552c.33-.168.553-.505.553-.895V13.616l1.447-.723a1 1 0 0 0 .5-1.218l.002.007-.684-2.052 1.704-.568 4.66 1.865a.997.997 0 0 0 1.078-.222l.02-.019.378.76a1.003 1.003 0 0 0 1.725.111l.002-.004 1.786-2.679L20 8.279v.719c0 .276.112.526.293.707l2 2a.997.997 0 0 0 .707.293h2c0 .466.319.857.75.969l.007.002 2.79.698-.442.885z"/></symbol></defs></svg>